# xmcd CD database file
#
# Track frame offsets:
#	183
#	15408
#	27458
#	39805
#	57910
#	70875
#	87455
#	103858
#	118625
#	134190
#	147850
#	156610
#
# Disc length: 2258 seconds
#
# Revision: 0
# Processed by: cddbd v1.4PL0 Copyright (c) Steve Scherf et al.
# Submitted via: Feurio! 1.65 - http://www.feurio.com
#
DISCID=ac08d00c
DTITLE=Dr. Feelgood - Brilleaux
DYEAR=1900
DGENRE=Blues
TTITLE0=I Love You, So You're Mine
TTITLE1=You Got My Number
TTITLE2=Big Enough
TTITLE3=Don't Wait Up
TTITLE4=Get Rhythm
TTITLE5=Where Is The Next One?
TTITLE6=Play Dirty
TTITLE7=Grow Too Old
TTITLE8=Rough Ride
TTITLE9=I'm A Real Man
TTITLE10=Come Over Here
TTITLE11=Take What You Can Get
EXTD=ARD Grand records GRAND CD 04
EXTT0=
EXTT1=
EXTT2=
EXTT3=
EXTT4=
EXTT5=
EXTT6=
EXTT7=
EXTT8=
EXTT9=
EXTT10=
EXTT11=
PLAYORDER=
